<svg width="120" height="120" viewBox="0 0 120 120" fill="none"
    xmlns="http://www.w3.org/2000/svg">
    <rect x="20.5" y="13" width="99" height="92" rx="24" fill="#E2F8EF"/>
    <path d="M10 60C10 41.1438 10 31.7157 15.8579 25.8579C21.7157 20 31.1438 20 50 20H70C88.8562 20 98.2843 20 104.142 25.8579C110 31.7157 110 41.1438 110 60V70C110 88.8562 110 98.2843 104.142 104.142C98.2843 110 88.8562 110 70 110H50C31.1438 110 21.7157 110 15.8579 104.142C10 98.2843 10 88.8562 10 70V60Z" stroke="#00A3A3" stroke-width="2"/>
    <path d="M35 20V12.5" stroke="#00A3A3" stroke-width="2" stroke-linecap="round"/>
    <path d="M85 20V12.5" stroke="#00A3A3" stroke-width="2" stroke-linecap="round"/>
    <path d="M12.5 45H107.5" stroke="#00A3A3" stroke-width="2" stroke-linecap="round"/>
    <path d="M90 85C90 87.7614 87.7614 90 85 90C82.2386 90 80 87.7614 80 85C80 82.2386 82.2386 80 85 80C87.7614 80 90 82.2386 90 85Z" fill="#00A3A3"/>
    <path d="M90 65C90 67.7614 87.7614 70 85 70C82.2386 70 80 67.7614 80 65C80 62.2386 82.2386 60 85 60C87.7614 60 90 62.2386 90 65Z" fill="#00A3A3"/>
    <path d="M65 85C65 87.7614 62.7614 90 60 90C57.2386 90 55 87.7614 55 85C55 82.2386 57.2386 80 60 80C62.7614 80 65 82.2386 65 85Z" fill="#00A3A3"/>
    <path d="M65 65C65 67.7614 62.7614 70 60 70C57.2386 70 55 67.7614 55 65C55 62.2386 57.2386 60 60 60C62.7614 60 65 62.2386 65 65Z" fill="#00A3A3"/>
    <path d="M40 85C40 87.7614 37.7614 90 35 90C32.2386 90 30 87.7614 30 85C30 82.2386 32.2386 80 35 80C37.7614 80 40 82.2386 40 85Z" fill="#00A3A3"/>
    <path d="M40 65C40 67.7614 37.7614 70 35 70C32.2386 70 30 67.7614 30 65C30 62.2386 32.2386 60 35 60C37.7614 60 40 62.2386 40 65Z" fill="#00A3A3"/>
</svg>
