<svg width="78" height="24" viewBox="0 0 78 24" fill="none" xmlns="http://www.w3.org/2000/svg">
    <g clip-path="url(#clip0_5187_28413)">
        <path d="M3.29742 24.0003H62.1243C66.5002 24.0003 71.4968 22.4071 74.3767 14.1688L77.3538 5.9619C78.452 3.05452 77.2072 0.601491 74.8643 0.507812H16.0388C11.6635 0.507812 6.66697 2.10101 3.78709 10.3387L0.808595 18.5462C-0.289597 21.4536 0.955154 23.9066 3.29742 24.0003Z" fill="#00ABEE"/>
        <path d="M21.7307 16.2167C21.6448 16.2182 21.56 16.2371 21.4817 16.2723C21.4034 16.3075 21.3332 16.3583 21.2755 16.4214C20.4894 17.1575 19.5195 17.7129 18.2957 17.7129C16.0615 17.7129 14.3642 15.8881 14.3642 13.5924V13.5515C14.3642 11.2765 16.0196 9.45178 18.1923 9.45178C19.4756 9.45178 20.3441 10.0252 21.11 10.7231C21.2561 10.8415 21.4387 10.9067 21.6274 10.9078C21.728 10.9079 21.8276 10.8883 21.9205 10.8502C22.0134 10.8121 22.0978 10.7562 22.1689 10.6857C22.24 10.6152 22.2964 10.5315 22.3347 10.4394C22.3731 10.3473 22.3928 10.2487 22.3926 10.149C22.3929 10.0446 22.3709 9.94137 22.328 9.84601C22.2852 9.75064 22.2225 9.66532 22.1441 9.59564C21.1924 8.73447 19.9923 8.05664 18.2133 8.05664C15.0889 8.05664 12.7297 10.5993 12.7297 13.5917V13.6325C12.7297 16.6055 15.0889 19.1267 18.2133 19.1267C20.0132 19.1267 21.2343 18.4295 22.2481 17.4251C22.3783 17.2936 22.4523 17.1175 22.4547 16.9333C22.4488 16.745 22.3706 16.566 22.2361 16.4329C22.1015 16.2997 21.9208 16.2224 21.7307 16.2167Z" fill="white"/>
        <path d="M26.1384 3.8125C25.9272 3.81707 25.7263 3.90391 25.5793 4.05421C25.4323 4.20451 25.3509 4.40616 25.3529 4.61546V18.1827C25.3508 18.2884 25.3702 18.3934 25.41 18.4915C25.4497 18.5896 25.509 18.6788 25.5842 18.7537C25.6595 18.8286 25.7492 18.8878 25.848 18.9277C25.9468 18.9675 26.0527 18.9872 26.1594 18.9857C26.6146 18.9857 26.9455 18.6371 26.9455 18.1827V4.61211C26.9446 4.40031 26.8593 4.19744 26.7081 4.04767C26.557 3.89791 26.3522 3.81338 26.1384 3.8125Z" fill="white"/>
        <path d="M31.5801 4.11914C31.0628 4.11914 30.6494 4.44701 30.6494 4.95957V5.22722C30.6494 5.71903 31.0628 6.06765 31.5801 6.06765C32.1204 6.06765 32.5324 5.71903 32.5324 5.22722V4.95957C32.5324 4.44701 32.1184 4.11914 31.5801 4.11914Z" fill="white"/>
        <path d="M31.5802 8.17983C31.369 8.18457 31.1682 8.27144 31.0211 8.42168C30.874 8.57193 30.7924 8.77348 30.7941 8.98278V18.184C30.7921 18.29 30.8117 18.3953 30.8517 18.4936C30.8917 18.5919 30.9513 18.6813 31.027 18.7562C31.1026 18.8312 31.1928 18.8903 31.292 18.9299C31.3913 18.9695 31.4976 18.9889 31.6046 18.987C32.0598 18.987 32.3907 18.6383 32.3907 18.184V8.97944C32.3923 8.87372 32.3724 8.76877 32.3321 8.67084C32.2919 8.57291 32.2322 8.484 32.1566 8.40939C32.081 8.33479 31.991 8.27602 31.892 8.23658C31.793 8.19714 31.6869 8.17784 31.5802 8.17983Z" fill="white"/>
        <path d="M41.3468 8.05664C39.505 8.05664 38.3879 8.97937 37.6842 10.1309V8.97937C37.6862 8.87338 37.6666 8.76807 37.6266 8.66975C37.5866 8.57142 37.527 8.48211 37.4513 8.40715C37.3756 8.33218 37.2855 8.27311 37.1862 8.23346C37.087 8.19382 36.9807 8.17442 36.8737 8.17642C36.6625 8.18116 36.4616 8.26803 36.3145 8.41827C36.1674 8.56852 36.0859 8.77007 36.0875 8.97937V18.1839C36.0855 18.2896 36.105 18.3947 36.1448 18.4928C36.1846 18.5909 36.244 18.68 36.3193 18.7549C36.3946 18.8299 36.4843 18.889 36.5832 18.9288C36.682 18.9687 36.7879 18.9884 36.8946 18.9869C37.3499 18.9869 37.6808 18.6383 37.6808 18.1839V12.8128C37.6808 10.8242 39.0465 9.49193 40.8883 9.49193C42.7706 9.49193 43.8472 10.7218 43.8472 12.6897V18.1839C43.8472 18.3932 43.9311 18.5938 44.0804 18.7418C44.2297 18.8897 44.4323 18.9728 44.6435 18.9728C44.8546 18.9728 45.0572 18.8897 45.2065 18.7418C45.3558 18.5938 45.4397 18.3932 45.4397 18.1839V12.3003C45.4431 9.77898 43.9323 8.05664 41.3468 8.05664Z" fill="white"/>
        <path d="M49.7686 4.11914C49.2519 4.11914 48.8379 4.44701 48.8379 4.95957V5.22722C48.8379 5.71903 49.2519 6.06765 49.7686 6.06765C50.3089 6.06765 50.7209 5.71903 50.7209 5.22722V4.95957C50.7209 4.44701 50.3069 4.11914 49.7686 4.11914Z" fill="white"/>
        <path d="M49.7683 8.17978C49.5571 8.18452 49.3564 8.27142 49.2094 8.42168C49.0624 8.57194 48.981 8.77349 48.9828 8.98274V18.1839C48.9807 18.2896 49.0001 18.3946 49.0398 18.4927C49.0796 18.5908 49.1388 18.68 49.2141 18.7549C49.2893 18.8298 49.379 18.889 49.4779 18.9289C49.5767 18.9687 49.6826 18.9885 49.7892 18.9869C50.2445 18.9869 50.5754 18.6383 50.5754 18.1839V8.97939C50.577 8.87394 50.5573 8.76923 50.5173 8.67148C50.4773 8.57373 50.4179 8.48494 50.3427 8.41036C50.2674 8.33578 50.1778 8.27695 50.0791 8.23734C49.9804 8.19773 49.8747 8.17816 49.7683 8.17978Z" fill="white"/>
        <path d="M62.8435 17.6718L59.3673 13.4489L62.6983 9.41002C62.8295 9.27071 62.9034 9.08794 62.9057 8.89747C62.908 8.80264 62.8908 8.70834 62.8553 8.62028C62.8197 8.53221 62.7665 8.45222 62.6988 8.38515C62.6311 8.31808 62.5503 8.26533 62.4614 8.23009C62.3725 8.19485 62.2774 8.17787 62.1816 8.18016C61.8919 8.18016 61.6846 8.3441 61.4981 8.56959L58.4359 12.4238L55.3527 8.54952C55.167 8.32402 54.9597 8.18016 54.6497 8.18016C54.5511 8.1766 54.4529 8.1932 54.3611 8.22893C54.2694 8.26466 54.186 8.31875 54.1163 8.38782C54.0466 8.45689 53.992 8.53946 53.9559 8.63037C53.9199 8.72128 53.9031 8.81859 53.9067 8.9162C53.9067 9.12163 53.9891 9.30563 54.1553 9.49031L57.4451 13.4877L53.9486 17.7561C53.88 17.8225 53.8262 17.9024 53.7906 17.9907C53.755 18.079 53.7384 18.1736 53.7419 18.2686C53.7416 18.363 53.7603 18.4566 53.7968 18.5438C53.8333 18.631 53.8869 18.7102 53.9545 18.7767C54.0221 18.8432 54.1023 18.8958 54.1906 18.9314C54.2788 18.967 54.3734 18.9848 54.4686 18.9839C54.7584 18.9839 54.9651 18.82 55.1515 18.5938L58.3792 14.5349L61.6278 18.6166C61.8142 18.8421 62.0209 18.9859 62.3316 18.9859C62.4297 18.9878 62.5271 18.97 62.6181 18.9336C62.709 18.8973 62.7917 18.8431 62.861 18.7744C62.9304 18.7057 62.985 18.6238 63.0217 18.5337C63.0584 18.4436 63.0764 18.3471 63.0745 18.2499C63.0739 18.0405 62.9908 17.8565 62.8435 17.6718Z" fill="white"/>
    </g>
    <defs>
        <clipPath id="clip0_5187_28413">
            <rect width="78" height="24" fill="white"/>
        </clipPath>
    </defs>
</svg>
