<svg width="16" height="16" viewBox="0 0 16 16" fill="none"
    xmlns="http://www.w3.org/2000/svg">
    <path d="M8.00002 4.79961C7.57568 4.79961 7.16871 4.63104 6.86865 4.33098C6.5686 4.03092 6.40002 3.62396 6.40002 3.19961C6.40002 2.77526 6.5686 2.3683 6.86865 2.06824C7.16871 1.76818 7.57568 1.59961 8.00002 1.59961C8.42437 1.59961 8.83134 1.76818 9.13139 2.06824C9.43145 2.3683 9.60002 2.77526 9.60002 3.19961C9.60002 3.62396 9.43145 4.03092 9.13139 4.33098C8.83134 4.63104 8.42437 4.79961 8.00002 4.79961ZM8.00002 9.59961C7.57568 9.59961 7.16871 9.43104 6.86865 9.13098C6.5686 8.83092 6.40002 8.42396 6.40002 7.99961C6.40002 7.57526 6.5686 7.1683 6.86865 6.86824C7.16871 6.56818 7.57568 6.39961 8.00002 6.39961C8.42437 6.39961 8.83134 6.56818 9.13139 6.86824C9.43145 7.1683 9.60002 7.57526 9.60002 7.99961C9.60002 8.42396 9.43145 8.83092 9.13139 9.13098C8.83134 9.43104 8.42437 9.59961 8.00002 9.59961ZM8.00002 14.3996C7.57568 14.3996 7.16871 14.231 6.86865 13.931C6.5686 13.6309 6.40002 13.224 6.40002 12.7996C6.40002 12.3753 6.5686 11.9683 6.86865 11.6682C7.16871 11.3682 7.57568 11.1996 8.00002 11.1996C8.42437 11.1996 8.83134 11.3682 9.13139 11.6682C9.43145 11.9683 9.60002 12.3753 9.60002 12.7996C9.60002 13.224 9.43145 13.6309 9.13139 13.931C8.83134 14.231 8.42437 14.3996 8.00002 14.3996Z" fill="#98A6B3"/>
</svg>
