<svg width="73" height="24" viewBox="0 0 73 24" fill="none" xmlns="http://www.w3.org/2000/svg">
    <g clip-path="url(#clip0_5187_28517)">
        <path d="M70.7263 14.6682L72.7515 16.0209C72.0942 16.9909 70.5221 18.6552 67.8041 18.6552C64.429 18.6552 61.9155 16.0388 61.9155 12.7103C61.9155 9.16848 64.4557 6.76562 67.52 6.76562C70.602 6.76562 72.1119 9.22177 72.6005 10.5478L72.867 11.2242L64.9265 14.5169C65.5305 15.7095 66.472 16.3146 67.8041 16.3146C69.1365 16.3146 70.0602 15.6561 70.7263 14.6682ZM64.5002 12.5236L69.8027 10.3165C69.5095 9.57791 68.6392 9.05291 67.5998 9.05291C66.2766 9.05291 64.438 10.2276 64.5002 12.5236Z" fill="#FF302F"/>
        <path d="M58.0874 0.703125H60.6452V18.1103H58.0874V0.703125Z" fill="#20B15A"/>
        <path d="M54.0549 7.22743H56.5241V17.7999C56.5241 22.1871 53.9394 23.9937 50.884 23.9937C48.0063 23.9937 46.2744 22.0537 45.626 20.4786L47.8908 19.5351C48.2993 20.5051 49.2852 21.6533 50.884 21.6533C52.8468 21.6533 54.0549 20.434 54.0549 18.1559V17.3016H53.9661C53.3798 18.0134 52.2607 18.6541 50.8396 18.6541C47.873 18.6541 45.155 16.0644 45.155 12.7273C45.155 9.37215 47.873 6.75586 50.8396 6.75586C52.2519 6.75586 53.3798 7.38772 53.9661 8.08186H54.0549V7.22743ZM54.2324 12.7273C54.2324 10.627 52.838 9.09629 51.0616 9.09629C49.2674 9.09629 47.7575 10.627 47.7575 12.7273C47.7575 14.8007 49.2674 16.3047 51.0616 16.3047C52.8381 16.3137 54.2325 14.8007 54.2325 12.7273" fill="#3686F7"/>
        <path d="M31.1128 12.6821C31.1128 16.1084 28.4483 18.6268 25.1797 18.6268C21.9112 18.6268 19.2466 16.0995 19.2466 12.6821C19.2466 9.23809 21.9112 6.72852 25.1797 6.72852C28.4483 6.72852 31.1128 9.23809 31.1128 12.6821ZM28.5193 12.6821C28.5193 10.5464 26.9737 9.0778 25.1797 9.0778C23.3856 9.0778 21.8401 10.5464 21.8401 12.6821C21.8401 14.8001 23.3856 16.2864 25.1797 16.2864C26.9739 16.2864 28.5193 14.8001 28.5193 12.6821Z" fill="#FF302F"/>
        <path d="M44.0715 12.7103C44.0715 16.1366 41.4069 18.6551 38.1384 18.6551C34.8698 18.6551 32.2053 16.1365 32.2053 12.7103C32.2053 9.26634 34.8698 6.76562 38.1384 6.76562C41.4069 6.76562 44.0715 9.25748 44.0715 12.7103ZM41.469 12.7103C41.469 10.5746 39.9236 9.10605 38.1294 9.10605C36.3352 9.10605 34.7898 10.5746 34.7898 12.7103C34.7898 14.8283 36.3354 16.3146 38.1294 16.3146C39.9325 16.3146 41.469 14.8195 41.469 12.7103Z" fill="#FFBA40"/>
        <path d="M9.49415 16.0471C5.77258 16.0471 2.85943 13.0391 2.85943 9.31025C2.85943 5.58154 5.77258 2.57354 9.49415 2.57354C11.5015 2.57354 12.9669 3.36554 14.0505 4.38011L15.8359 2.5914C14.326 1.14082 12.3098 0.0371094 9.49415 0.0371094C4.39599 0.0372522 0.105957 4.20225 0.105957 9.31025C0.105957 14.4183 4.39599 18.5834 9.49415 18.5834C12.2476 18.5834 14.326 17.6757 15.9514 15.9848C17.6211 14.3117 18.1362 11.9623 18.1362 10.0578C18.1362 9.46154 18.0652 8.84754 17.9853 8.39368H9.49415V10.8677H15.5427C15.3651 12.4163 14.8766 13.4753 14.1572 14.196C13.2867 15.0771 11.9101 16.0471 9.49415 16.0471Z" fill="#3686F7"/>
    </g>
    <defs>
        <clipPath id="clip0_5187_28517">
            <rect width="73" height="24" fill="white"/>
        </clipPath>
    </defs>
</svg>
