<svg width="24" height="24" viewBox="0 0 24 24" fill="none" xmlns="http://www.w3.org/2000/svg">
<path d="M8.86956 11.3077C7.94707 11.3077 7.06236 10.943 6.41006 10.2938C5.75776 9.64467 5.3913 8.76421 5.3913 7.84615V5.07692C5.3913 4.89331 5.4646 4.71722 5.59506 4.58739C5.72552 4.45755 5.90246 4.38462 6.08696 4.38462H6.78261C6.96711 4.38462 7.14405 4.31168 7.27451 4.18184C7.40497 4.05201 7.47826 3.87592 7.47826 3.69231C7.47826 3.5087 7.40497 3.33261 7.27451 3.20277C7.14405 3.07294 6.96711 3 6.78261 3H6.08696C5.53346 3 5.00264 3.21882 4.61126 3.60832C4.21988 3.99782 4 4.52609 4 5.07692V7.84615C4.00089 8.62828 4.19254 9.3985 4.55847 10.0907C4.9244 10.7828 5.45369 11.3763 6.10087 11.82C6.72329 12.365 7.22798 13.0302 7.58433 13.7752C7.94067 14.5202 8.14126 15.3294 8.17391 16.1538C8.17391 17.4391 8.68695 18.6718 9.60017 19.5806C10.5134 20.4894 11.752 21 13.0435 21C14.335 21 15.5736 20.4894 16.4868 19.5806C17.4 18.6718 17.913 17.4391 17.913 16.1538V15.3646C18.5688 15.1961 19.1403 14.7954 19.5204 14.2375C19.9005 13.6797 20.0632 13.003 19.9778 12.3344C19.8925 11.6657 19.565 11.051 19.0569 10.6055C18.5487 10.1599 17.8947 9.91409 17.2174 9.91409C16.5401 9.91409 15.8861 10.1599 15.3779 10.6055C14.8697 11.051 14.5423 11.6657 14.457 12.3344C14.3716 13.003 14.5342 13.6797 14.9144 14.2375C15.2945 14.7954 15.866 15.1961 16.5217 15.3646V16.1538C16.5217 17.0719 16.1553 17.9524 15.503 18.6015C14.8507 19.2507 13.966 19.6154 13.0435 19.6154C12.121 19.6154 11.2363 19.2507 10.584 18.6015C9.93167 17.9524 9.56522 17.0719 9.56522 16.1538C9.59963 15.3284 9.80238 14.5185 10.1612 13.7735C10.5199 13.0284 11.0272 12.3638 11.6522 11.82C12.2968 11.3747 12.8234 10.7806 13.1868 10.0886C13.5503 9.39648 13.7398 8.62705 13.7391 7.84615V5.07692C13.7391 4.52609 13.5193 3.99782 13.1279 3.60832C12.7365 3.21882 12.2057 3 11.6522 3H10.9565C10.772 3 10.5951 3.07294 10.4646 3.20277C10.3342 3.33261 10.2609 3.5087 10.2609 3.69231C10.2609 3.87592 10.3342 4.05201 10.4646 4.18184C10.5951 4.31168 10.772 4.38462 10.9565 4.38462H11.6522C11.8367 4.38462 12.0136 4.45755 12.1441 4.58739C12.2745 4.71722 12.3478 4.89331 12.3478 5.07692V7.84615C12.3478 8.30073 12.2579 8.75085 12.0831 9.17083C11.9083 9.5908 11.6521 9.9724 11.3291 10.2938C11.0061 10.6153 10.6226 10.8702 10.2006 11.0442C9.77863 11.2182 9.32633 11.3077 8.86956 11.3077ZM17.2174 14.0769C16.8484 14.0769 16.4945 13.931 16.2336 13.6714C15.9727 13.4117 15.8261 13.0595 15.8261 12.6923C15.8261 12.3251 15.9727 11.9729 16.2336 11.7132C16.4945 11.4536 16.8484 11.3077 17.2174 11.3077C17.5864 11.3077 17.9403 11.4536 18.2012 11.7132C18.4621 11.9729 18.6087 12.3251 18.6087 12.6923C18.6087 13.0595 18.4621 13.4117 18.2012 13.6714C17.9403 13.931 17.5864 14.0769 17.2174 14.0769Z" fill="#D82466"/>
</svg>
